<?xml version="1.0" encoding="utf-8"?>
<!-- Generator: Adobe Illustrator 15.0.0, SVG Export Plug-In  -->
<!DOCTYPE svg PUBLIC "-//W3C//DTD SVG 1.1//EN" "http://www.w3.org/Graphics/SVG/1.1/DTD/svg11.dtd" [
	<!ENTITY ns_flows "http://ns.adobe.com/Flows/1.0/">
]>
<svg version="1.1"
	 xmlns="http://www.w3.org/2000/svg" xmlns:xlink="http://www.w3.org/1999/xlink" xmlns:a="http://ns.adobe.com/AdobeSVGViewerExtensions/3.0/"
	 x="0px" y="0px" width="400px" height="157px" viewBox="-7.956 -28.683 400 157"
	 overflow="visible" enable-background="new -7.956 -28.683 400 157" xml:space="preserve">
<defs>
</defs>
<rect x="13.25" opacity="0.55" fill="#44A9DF" width="369.25" height="88"/>
<rect x="0.25" y="14.5" fill="#FFFFFF" stroke="#488FCD" stroke-width="0.5" stroke-miterlimit="10" width="367.5" height="84.345"/>
<path fill="#183319" d="M53.36,68.286c0,0.123-0.03,0.23-0.096,0.323c-0.061,0.092-0.173,0.166-0.333,0.219
	c-0.157,0.054-0.359,0.1-0.606,0.139c-0.244,0.039-0.565,0.057-0.961,0.057c-0.365,0-0.677-0.019-0.938-0.057
	c-0.262-0.04-0.467-0.085-0.619-0.139c-0.151-0.053-0.257-0.127-0.322-0.219c-0.063-0.093-0.094-0.2-0.094-0.323V42.273h-0.046
	L38.819,68.401c-0.047,0.107-0.112,0.2-0.196,0.277c-0.085,0.077-0.208,0.143-0.369,0.196c-0.162,0.053-0.354,0.093-0.577,0.116
	c-0.224,0.022-0.489,0.034-0.796,0.034c-0.324,0-0.601-0.015-0.831-0.046c-0.231-0.03-0.423-0.072-0.578-0.127
	c-0.154-0.053-0.272-0.119-0.357-0.196c-0.084-0.076-0.143-0.161-0.173-0.253L24.878,42.273h-0.023v26.013
	c0,0.123-0.031,0.23-0.096,0.323c-0.061,0.092-0.173,0.166-0.333,0.219c-0.157,0.054-0.363,0.1-0.617,0.139
	c-0.254,0.039-0.579,0.057-0.976,0.057c-0.378,0-0.696-0.019-0.95-0.057c-0.254-0.04-0.456-0.085-0.606-0.139
	c-0.152-0.053-0.254-0.127-0.309-0.219c-0.056-0.093-0.083-0.2-0.083-0.323V40.819c0-0.647,0.171-1.108,0.516-1.385
	c0.344-0.277,0.727-0.416,1.148-0.416h2.437c0.5,0,0.939,0.046,1.314,0.139s0.702,0.238,0.982,0.439
	c0.283,0.2,0.518,0.454,0.704,0.761c0.189,0.308,0.353,0.67,0.493,1.084l8.54,21.627h0.116l8.886-21.558
	c0.172-0.461,0.36-0.854,0.562-1.177c0.204-0.323,0.427-0.581,0.669-0.774c0.243-0.191,0.512-0.33,0.81-0.415
	c0.296-0.085,0.641-0.127,1.031-0.127h2.556c0.235,0,0.458,0.034,0.667,0.104c0.211,0.069,0.393,0.177,0.541,0.323
	c0.148,0.146,0.27,0.331,0.363,0.554c0.095,0.223,0.141,0.496,0.141,0.819V68.286z"/>
<path fill="#183319" d="M70.325,68.885l-2.77,7.64c-0.093,0.247-0.328,0.435-0.704,0.565c-0.377,0.132-0.951,0.197-1.719,0.197
	c-0.4,0-0.723-0.019-0.97-0.058c-0.246-0.039-0.434-0.104-0.565-0.197c-0.131-0.091-0.204-0.215-0.219-0.369
	c-0.016-0.154,0.023-0.338,0.115-0.554l2.862-7.225c-0.138-0.062-0.27-0.161-0.392-0.299c-0.123-0.14-0.208-0.286-0.254-0.439
	L58.3,48.297c-0.124-0.323-0.185-0.578-0.185-0.762c0-0.184,0.062-0.331,0.185-0.438c0.123-0.107,0.323-0.181,0.6-0.22
	c0.277-0.039,0.646-0.057,1.108-0.057c0.462,0,0.823,0.011,1.085,0.035c0.262,0.022,0.47,0.065,0.624,0.127
	c0.154,0.062,0.265,0.15,0.334,0.265c0.07,0.115,0.143,0.274,0.22,0.473l5.932,16.665h0.069l5.724-16.757
	c0.093-0.292,0.205-0.481,0.336-0.565c0.13-0.085,0.326-0.146,0.588-0.185c0.261-0.039,0.639-0.057,1.13-0.057
	c0.432,0,0.785,0.019,1.062,0.057c0.277,0.039,0.48,0.112,0.612,0.22c0.13,0.108,0.196,0.254,0.196,0.438
	c0,0.185-0.046,0.416-0.139,0.692L70.325,68.885z"/>
<path fill="#183319" d="M105.063,67.478c0.123,0.339,0.188,0.611,0.196,0.819c0.007,0.208-0.051,0.366-0.174,0.473
	c-0.122,0.108-0.326,0.177-0.611,0.208c-0.284,0.031-0.665,0.046-1.143,0.046c-0.477,0-0.857-0.012-1.142-0.034
	c-0.285-0.023-0.5-0.062-0.646-0.116c-0.146-0.053-0.254-0.126-0.323-0.22c-0.07-0.091-0.135-0.208-0.196-0.346l-2.562-7.271H86.044
	l-2.447,7.178c-0.045,0.139-0.108,0.257-0.185,0.357c-0.077,0.101-0.189,0.185-0.335,0.254s-0.354,0.12-0.624,0.15
	c-0.269,0.031-0.619,0.046-1.05,0.046c-0.446,0-0.812-0.019-1.096-0.057c-0.285-0.04-0.485-0.112-0.6-0.219
	c-0.115-0.108-0.169-0.266-0.161-0.474c0.007-0.208,0.073-0.48,0.196-0.819L89.76,39.711c0.062-0.169,0.142-0.308,0.242-0.416
	c0.1-0.107,0.247-0.192,0.439-0.254c0.192-0.062,0.438-0.104,0.739-0.127c0.3-0.022,0.681-0.035,1.143-0.035
	c0.492,0,0.9,0.012,1.223,0.035c0.323,0.023,0.584,0.065,0.785,0.127c0.2,0.062,0.354,0.15,0.461,0.266s0.192,0.258,0.254,0.427
	L105.063,67.478z M92.206,42.988h-0.023l-5.146,14.888h10.386L92.206,42.988z"/>
<path fill="#183319" d="M113.857,40.519c0,0.893-0.169,1.5-0.508,1.824c-0.338,0.323-0.961,0.484-1.869,0.484
	c-0.893,0-1.504-0.158-1.835-0.473c-0.331-0.316-0.497-0.913-0.497-1.79c0-0.892,0.169-1.5,0.508-1.823
	c0.339-0.323,0.962-0.485,1.87-0.485c0.893,0,1.504,0.158,1.835,0.473C113.691,39.046,113.857,39.641,113.857,40.519z
	 M113.418,68.309c0,0.123-0.03,0.227-0.091,0.312c-0.063,0.084-0.163,0.158-0.301,0.219c-0.138,0.062-0.331,0.108-0.577,0.138
	c-0.247,0.031-0.562,0.046-0.946,0.046c-0.37,0-0.677-0.015-0.924-0.046c-0.246-0.03-0.442-0.076-0.588-0.138
	c-0.146-0.062-0.247-0.135-0.299-0.219c-0.054-0.085-0.082-0.188-0.082-0.312V47.535c0-0.108,0.027-0.208,0.082-0.301
	c0.053-0.091,0.153-0.168,0.299-0.23s0.342-0.107,0.588-0.138c0.247-0.031,0.554-0.046,0.924-0.046c0.385,0,0.7,0.015,0.946,0.046
	c0.246,0.031,0.438,0.077,0.577,0.138s0.238,0.139,0.301,0.23c0.062,0.093,0.091,0.193,0.091,0.301V68.309z"/>
<path fill="#183319" d="M132.599,48.897c0,0.338-0.007,0.623-0.023,0.853c-0.015,0.232-0.046,0.412-0.093,0.543
	c-0.046,0.131-0.104,0.23-0.173,0.3c-0.069,0.068-0.165,0.103-0.289,0.103c-0.123,0-0.273-0.035-0.45-0.103
	c-0.177-0.07-0.377-0.139-0.6-0.208c-0.223-0.069-0.473-0.134-0.75-0.196c-0.277-0.062-0.577-0.093-0.9-0.093
	c-0.384,0-0.762,0.077-1.131,0.231s-0.758,0.408-1.166,0.762c-0.408,0.354-0.834,0.823-1.281,1.407
	c-0.445,0.585-0.938,1.301-1.477,2.147v13.664c0,0.123-0.03,0.227-0.092,0.312c-0.062,0.084-0.162,0.158-0.3,0.219
	c-0.139,0.062-0.331,0.108-0.578,0.138c-0.246,0.031-0.561,0.046-0.946,0.046c-0.37,0-0.677-0.015-0.923-0.046
	c-0.246-0.03-0.442-0.076-0.589-0.138c-0.146-0.062-0.246-0.135-0.3-0.219c-0.053-0.085-0.081-0.188-0.081-0.312V47.535
	c0-0.123,0.023-0.227,0.069-0.311c0.046-0.085,0.138-0.162,0.277-0.231c0.138-0.069,0.315-0.116,0.531-0.138
	c0.215-0.023,0.499-0.035,0.853-0.035c0.339,0,0.62,0.011,0.843,0.035c0.223,0.022,0.396,0.069,0.519,0.138s0.211,0.146,0.265,0.231
	c0.055,0.084,0.082,0.188,0.082,0.311v3.023c0.569-0.83,1.104-1.507,1.604-2.031c0.5-0.523,0.973-0.934,1.419-1.234
	c0.446-0.301,0.889-0.508,1.327-0.624c0.439-0.116,0.88-0.174,1.328-0.174c0.2,0,0.426,0.012,0.681,0.035
	c0.254,0.023,0.519,0.065,0.796,0.127c0.277,0.062,0.527,0.13,0.75,0.208c0.223,0.077,0.381,0.154,0.473,0.23
	c0.093,0.077,0.155,0.15,0.185,0.219c0.031,0.07,0.058,0.158,0.081,0.266c0.023,0.108,0.038,0.265,0.046,0.473
	C132.595,48.262,132.599,48.543,132.599,48.897z"/>
<path fill="#183319" d="M153.419,60.507c0,1.4-0.258,2.646-0.774,3.739c-0.515,1.092-1.231,2.019-2.146,2.781
	s-1.992,1.334-3.232,1.72c-1.238,0.384-2.573,0.577-4.004,0.577c-1.001,0-1.927-0.085-2.781-0.254s-1.616-0.377-2.285-0.624
	c-0.669-0.246-1.231-0.499-1.685-0.761c-0.454-0.261-0.769-0.485-0.946-0.669c-0.177-0.185-0.308-0.419-0.393-0.704
	c-0.085-0.285-0.127-0.666-0.127-1.143c0-0.339,0.016-0.619,0.046-0.843c0.031-0.223,0.077-0.404,0.139-0.542
	c0.061-0.139,0.138-0.235,0.23-0.289s0.2-0.081,0.323-0.081c0.215,0,0.52,0.131,0.912,0.393c0.393,0.261,0.896,0.545,1.512,0.853
	c0.615,0.309,1.358,0.597,2.228,0.866c0.87,0.27,1.873,0.404,3.012,0.404c0.862,0,1.65-0.115,2.366-0.346
	c0.715-0.231,1.331-0.558,1.847-0.981c0.516-0.423,0.912-0.942,1.189-1.558c0.276-0.616,0.415-1.316,0.415-2.101
	c0-0.846-0.192-1.569-0.577-2.169c-0.385-0.601-0.892-1.128-1.523-1.582c-0.631-0.454-1.351-0.868-2.159-1.246
	c-0.807-0.377-1.635-0.762-2.48-1.154c-0.847-0.393-1.67-0.827-2.47-1.304c-0.8-0.478-1.516-1.039-2.146-1.686
	c-0.631-0.645-1.143-1.403-1.535-2.273c-0.392-0.869-0.588-1.912-0.588-3.127c0-1.247,0.227-2.359,0.681-3.336
	s1.084-1.796,1.893-2.458c0.809-0.662,1.77-1.166,2.884-1.512c1.116-0.347,2.32-0.519,3.613-0.519c0.661,0,1.327,0.057,1.997,0.172
	c0.669,0.116,1.3,0.27,1.892,0.462c0.593,0.192,1.121,0.408,1.582,0.646c0.462,0.239,0.765,0.432,0.912,0.578
	c0.146,0.146,0.242,0.261,0.289,0.347c0.046,0.084,0.085,0.191,0.115,0.322c0.03,0.132,0.054,0.29,0.069,0.474
	s0.023,0.423,0.023,0.715c0,0.277-0.012,0.523-0.035,0.739c-0.022,0.216-0.058,0.396-0.104,0.542s-0.112,0.254-0.197,0.323
	c-0.084,0.069-0.18,0.104-0.288,0.104c-0.169,0-0.436-0.108-0.797-0.324c-0.361-0.215-0.803-0.458-1.327-0.727
	c-0.523-0.269-1.143-0.516-1.858-0.738c-0.715-0.224-1.52-0.335-2.412-0.335c-0.832,0-1.554,0.111-2.169,0.335
	c-0.616,0.223-1.124,0.519-1.524,0.889c-0.4,0.369-0.7,0.808-0.901,1.316c-0.2,0.507-0.3,1.045-0.3,1.615
	c0,0.831,0.193,1.546,0.577,2.146c0.385,0.601,0.896,1.131,1.535,1.593c0.638,0.461,1.366,0.885,2.181,1.27
	c0.816,0.385,1.647,0.773,2.494,1.166c0.846,0.393,1.676,0.823,2.493,1.292c0.815,0.469,1.542,1.024,2.181,1.662
	c0.638,0.639,1.154,1.393,1.546,2.263C153.223,58.295,153.419,59.322,153.419,60.507z"/>
<path fill="#183319" d="M174.307,68.332c0,0.185-0.062,0.323-0.185,0.416c-0.123,0.092-0.292,0.161-0.507,0.207
	c-0.216,0.046-0.532,0.069-0.946,0.069c-0.401,0-0.72-0.023-0.958-0.069c-0.239-0.046-0.413-0.115-0.52-0.207
	c-0.107-0.093-0.161-0.231-0.161-0.416v-2.078c-0.908,0.97-1.92,1.723-3.036,2.262c-1.115,0.539-2.296,0.808-3.543,0.808
	c-1.093,0-2.082-0.143-2.966-0.427c-0.885-0.285-1.639-0.696-2.262-1.235c-0.623-0.538-1.107-1.2-1.454-1.984
	C157.423,64.892,157.25,64,157.25,63c0-1.17,0.238-2.185,0.715-3.047c0.477-0.861,1.162-1.577,2.054-2.146
	c0.893-0.57,1.986-0.997,3.278-1.282c1.292-0.284,2.746-0.427,4.362-0.427h2.862v-1.615c0-0.801-0.084-1.509-0.253-2.124
	c-0.169-0.616-0.443-1.127-0.82-1.535c-0.378-0.408-0.866-0.715-1.466-0.923c-0.6-0.208-1.338-0.311-2.215-0.311
	c-0.939,0-1.781,0.111-2.528,0.334c-0.747,0.223-1.401,0.469-1.962,0.738c-0.562,0.27-1.031,0.516-1.408,0.739
	c-0.378,0.223-0.658,0.335-0.843,0.335c-0.124,0-0.231-0.032-0.323-0.093c-0.092-0.062-0.173-0.155-0.242-0.278
	c-0.07-0.123-0.119-0.28-0.15-0.473c-0.031-0.193-0.046-0.404-0.046-0.635c0-0.384,0.027-0.688,0.081-0.911
	c0.055-0.224,0.185-0.435,0.393-0.635c0.208-0.201,0.565-0.436,1.073-0.705c0.508-0.269,1.093-0.516,1.754-0.738
	c0.661-0.224,1.385-0.408,2.169-0.554c0.785-0.146,1.577-0.22,2.377-0.22c1.493,0,2.763,0.169,3.808,0.508
	c1.046,0.338,1.893,0.835,2.54,1.489c0.646,0.654,1.117,1.466,1.408,2.435c0.293,0.97,0.438,2.101,0.438,3.393V68.332z
	 M170.522,58.845h-3.254c-1.047,0-1.955,0.088-2.724,0.266c-0.769,0.177-1.408,0.438-1.916,0.785s-0.881,0.762-1.12,1.246
	c-0.238,0.485-0.357,1.042-0.357,1.673c0,1.078,0.343,1.935,1.027,2.574s1.643,0.958,2.874,0.958c1,0,1.927-0.254,2.782-0.762
	c0.854-0.508,1.75-1.286,2.688-2.332V58.845z"/>
<path fill="#183319" d="M212.113,68.309c0,0.123-0.031,0.227-0.09,0.312c-0.062,0.084-0.164,0.158-0.301,0.219
	c-0.139,0.062-0.33,0.108-0.578,0.138c-0.246,0.031-0.555,0.046-0.924,0.046c-0.383,0-0.699-0.015-0.945-0.046
	c-0.246-0.03-0.443-0.076-0.59-0.138c-0.146-0.062-0.25-0.135-0.311-0.219c-0.062-0.085-0.092-0.188-0.092-0.312V55.683
	c0-0.877-0.076-1.677-0.23-2.4c-0.154-0.723-0.4-1.346-0.738-1.869c-0.338-0.523-0.771-0.924-1.293-1.2
	c-0.523-0.278-1.139-0.416-1.848-0.416c-0.877,0-1.758,0.338-2.643,1.015c-0.885,0.677-1.857,1.669-2.92,2.978v14.518
	c0,0.123-0.029,0.227-0.092,0.312c-0.061,0.084-0.164,0.158-0.312,0.219c-0.146,0.062-0.342,0.108-0.588,0.138
	c-0.246,0.031-0.553,0.046-0.924,0.046c-0.354,0-0.658-0.015-0.91-0.046c-0.256-0.03-0.455-0.076-0.6-0.138
	c-0.148-0.062-0.248-0.135-0.301-0.219c-0.055-0.085-0.08-0.188-0.08-0.312V55.683c0-0.877-0.086-1.677-0.256-2.4
	c-0.168-0.723-0.422-1.346-0.762-1.869c-0.338-0.523-0.764-0.924-1.279-1.2c-0.518-0.278-1.129-0.416-1.835-0.416
	c-0.878,0-1.763,0.338-2.655,1.015c-0.893,0.677-1.863,1.669-2.908,2.978v14.518c0,0.123-0.03,0.227-0.092,0.312
	c-0.062,0.084-0.162,0.158-0.302,0.219c-0.138,0.062-0.329,0.108-0.575,0.138c-0.248,0.031-0.562,0.046-0.948,0.046
	c-0.369,0-0.675-0.015-0.923-0.046c-0.246-0.03-0.441-0.076-0.588-0.138c-0.146-0.062-0.246-0.135-0.301-0.219
	c-0.053-0.085-0.08-0.188-0.08-0.312V47.535c0-0.123,0.021-0.227,0.068-0.311c0.047-0.085,0.14-0.162,0.279-0.231
	c0.137-0.069,0.314-0.116,0.529-0.138c0.215-0.023,0.5-0.035,0.854-0.035c0.34,0,0.62,0.011,0.842,0.035
	c0.225,0.022,0.398,0.069,0.521,0.138c0.123,0.069,0.211,0.146,0.266,0.231c0.054,0.084,0.081,0.188,0.081,0.311v2.747
	c1.168-1.308,2.303-2.266,3.403-2.873c1.101-0.608,2.212-0.913,3.335-0.913c0.863,0,1.637,0.1,2.32,0.301
	c0.686,0.2,1.289,0.48,1.812,0.842c0.523,0.362,0.969,0.793,1.338,1.292c0.371,0.501,0.678,1.058,0.924,1.674
	c0.693-0.754,1.35-1.393,1.975-1.916c0.621-0.524,1.223-0.947,1.799-1.269c0.578-0.324,1.141-0.559,1.686-0.705
	c0.547-0.146,1.096-0.22,1.65-0.22c1.338,0,2.463,0.235,3.369,0.705c0.908,0.469,1.643,1.097,2.205,1.881
	c0.562,0.784,0.961,1.703,1.199,2.758c0.24,1.054,0.357,2.166,0.357,3.335V68.309z"/>
<path fill="#183319" d="M238.174,57.599c0,1.815-0.197,3.446-0.59,4.894c-0.393,1.447-0.969,2.674-1.73,3.681
	c-0.762,1.008-1.705,1.785-2.828,2.332c-1.123,0.545-2.408,0.819-3.854,0.819c-0.615,0-1.186-0.062-1.707-0.185
	c-0.525-0.123-1.037-0.315-1.537-0.576c-0.498-0.263-0.996-0.592-1.486-0.993c-0.494-0.4-1.018-0.869-1.572-1.408v10.387
	c0,0.124-0.029,0.231-0.092,0.323c-0.061,0.092-0.16,0.169-0.301,0.231c-0.137,0.061-0.33,0.108-0.576,0.138
	c-0.246,0.031-0.561,0.046-0.945,0.046c-0.369,0-0.678-0.015-0.924-0.046c-0.246-0.03-0.443-0.077-0.588-0.138
	c-0.146-0.062-0.246-0.139-0.301-0.231c-0.053-0.092-0.08-0.2-0.08-0.323V47.535c0-0.138,0.023-0.25,0.068-0.334
	c0.047-0.084,0.139-0.157,0.277-0.219s0.316-0.104,0.531-0.127c0.213-0.023,0.477-0.035,0.785-0.035
	c0.322,0,0.586,0.011,0.797,0.035c0.207,0.022,0.379,0.065,0.518,0.127c0.141,0.062,0.236,0.135,0.289,0.219
	c0.053,0.085,0.08,0.196,0.08,0.334v2.793c0.631-0.646,1.24-1.208,1.824-1.685c0.584-0.478,1.174-0.874,1.766-1.189
	c0.592-0.315,1.199-0.554,1.824-0.715c0.621-0.162,1.281-0.243,1.973-0.243c1.508,0,2.793,0.292,3.854,0.877
	c1.062,0.585,1.928,1.385,2.598,2.4c0.67,1.016,1.158,2.197,1.465,3.543C238.02,54.664,238.174,56.09,238.174,57.599z
	 M234.229,58.038c0-1.062-0.082-2.089-0.246-3.082c-0.16-0.992-0.441-1.873-0.834-2.643c-0.396-0.769-0.926-1.384-1.592-1.846
	c-0.668-0.462-1.494-0.693-2.486-0.693c-0.494,0-0.982,0.073-1.463,0.219c-0.48,0.147-0.967,0.377-1.463,0.692
	c-0.494,0.316-1.014,0.731-1.555,1.246c-0.543,0.516-1.115,1.151-1.721,1.905V62.1c1.053,1.276,2.051,2.253,2.998,2.931
	c0.941,0.677,1.936,1.016,2.973,1.016c0.959,0,1.781-0.231,2.473-0.692c0.688-0.462,1.246-1.077,1.672-1.847
	c0.424-0.77,0.738-1.631,0.939-2.585S234.229,59.007,234.229,58.038z"/>
<path fill="#183319" d="M247.707,68.309c0,0.123-0.031,0.227-0.094,0.312c-0.061,0.084-0.162,0.158-0.299,0.219
	c-0.141,0.062-0.332,0.108-0.578,0.138c-0.246,0.031-0.562,0.046-0.945,0.046c-0.369,0-0.678-0.015-0.924-0.046
	c-0.246-0.03-0.443-0.076-0.59-0.138c-0.145-0.062-0.246-0.135-0.299-0.219c-0.055-0.085-0.08-0.188-0.08-0.312V37.472
	c0-0.123,0.025-0.231,0.08-0.324c0.053-0.092,0.154-0.169,0.299-0.231c0.146-0.061,0.344-0.107,0.59-0.138
	c0.246-0.031,0.555-0.046,0.924-0.046c0.383,0,0.699,0.015,0.945,0.046c0.246,0.031,0.438,0.077,0.578,0.138
	c0.137,0.062,0.238,0.139,0.299,0.231c0.062,0.092,0.094,0.201,0.094,0.324V68.309z"/>
<path fill="#183319" d="M272.471,57.022c0,0.6-0.148,1.027-0.451,1.281c-0.301,0.254-0.645,0.381-1.033,0.381h-13.678
	c0,1.154,0.115,2.192,0.348,3.116c0.23,0.923,0.615,1.716,1.158,2.377c0.541,0.662,1.246,1.169,2.109,1.523
	c0.867,0.354,1.928,0.531,3.18,0.531c0.99,0,1.871-0.081,2.646-0.242c0.771-0.162,1.439-0.342,2.004-0.543
	c0.562-0.199,1.027-0.381,1.393-0.542c0.363-0.162,0.637-0.243,0.82-0.243c0.111,0,0.207,0.028,0.291,0.081
	c0.086,0.054,0.15,0.135,0.199,0.243c0.047,0.108,0.08,0.258,0.104,0.45s0.035,0.427,0.035,0.704c0,0.2-0.008,0.374-0.023,0.52
	s-0.035,0.277-0.059,0.393c-0.021,0.115-0.061,0.219-0.115,0.312c-0.053,0.092-0.121,0.181-0.207,0.266
	c-0.084,0.085-0.334,0.223-0.75,0.415c-0.416,0.192-0.955,0.381-1.615,0.566c-0.662,0.184-1.428,0.35-2.297,0.496
	c-0.871,0.146-1.797,0.219-2.781,0.219c-1.709,0-3.205-0.238-4.49-0.715c-1.283-0.478-2.365-1.185-3.244-2.124
	c-0.875-0.939-1.537-2.116-1.984-3.532c-0.443-1.416-0.668-3.062-0.668-4.939c0-1.785,0.23-3.389,0.693-4.812
	c0.459-1.423,1.125-2.631,1.996-3.624c0.869-0.993,1.918-1.755,3.15-2.285c1.23-0.531,2.607-0.797,4.131-0.797
	c1.631,0,3.021,0.262,4.166,0.785c1.146,0.524,2.09,1.227,2.828,2.112c0.738,0.886,1.279,1.923,1.627,3.116
	c0.346,1.192,0.518,2.465,0.518,3.82V57.022z M268.643,55.891c0.045-2-0.402-3.57-1.338-4.709c-0.936-1.138-2.326-1.708-4.166-1.708
	c-0.945,0-1.773,0.177-2.484,0.531c-0.715,0.354-1.311,0.823-1.791,1.408c-0.48,0.584-0.852,1.266-1.115,2.042
	c-0.264,0.777-0.41,1.588-0.439,2.435H268.643z"/>
<path fill="#183319" d="M283.182,66.37c0,1.092-0.18,1.819-0.543,2.181c-0.361,0.361-1.02,0.542-1.973,0.542
	c-0.924,0-1.561-0.177-1.914-0.53c-0.355-0.354-0.533-1.062-0.533-2.124c0-1.093,0.182-1.82,0.543-2.182
	c0.363-0.361,1.02-0.542,1.973-0.542c0.924,0,1.562,0.177,1.918,0.531C283.006,64.601,283.182,65.308,283.182,66.37z"/>
<path fill="#183319" d="M309.518,57.691c0,1.693-0.223,3.25-0.67,4.674c-0.445,1.423-1.111,2.65-1.996,3.682
	c-0.885,1.031-1.992,1.834-3.322,2.412c-1.332,0.577-2.875,0.866-4.627,0.866c-1.711,0-3.197-0.254-4.469-0.761
	c-1.268-0.508-2.326-1.247-3.174-2.216c-0.846-0.969-1.477-2.147-1.893-3.532c-0.416-1.384-0.621-2.954-0.621-4.708
	c0-1.693,0.219-3.251,0.656-4.675c0.439-1.422,1.1-2.65,1.984-3.682c0.885-1.031,1.988-1.831,3.312-2.399
	c1.324-0.57,2.871-0.855,4.641-0.855c1.707,0,3.195,0.254,4.465,0.762c1.27,0.508,2.328,1.247,3.174,2.216
	c0.846,0.969,1.482,2.146,1.904,3.531C309.307,54.39,309.518,55.952,309.518,57.691z M305.57,57.945
	c0-1.123-0.105-2.185-0.314-3.185c-0.209-1-0.555-1.877-1.035-2.632c-0.482-0.753-1.135-1.349-1.959-1.788
	c-0.82-0.439-1.846-0.658-3.072-0.658c-1.133,0-2.109,0.201-2.924,0.6c-0.814,0.4-1.486,0.966-2.014,1.697s-0.922,1.596-1.176,2.596
	c-0.256,1.001-0.385,2.093-0.385,3.278c0,1.138,0.104,2.208,0.314,3.209c0.209,1,0.559,1.873,1.047,2.62
	c0.49,0.745,1.146,1.338,1.969,1.777s1.848,0.658,3.076,0.658c1.117,0,2.086-0.2,2.91-0.601c0.822-0.4,1.496-0.962,2.027-1.685
	c0.525-0.724,0.916-1.585,1.162-2.585C305.445,60.245,305.57,59.145,305.57,57.945z"/>
<path fill="#183319" d="M327.268,48.897c0,0.338-0.008,0.623-0.023,0.853c-0.014,0.232-0.047,0.412-0.094,0.543
	c-0.043,0.131-0.104,0.23-0.172,0.3c-0.068,0.068-0.164,0.103-0.287,0.103c-0.125,0-0.273-0.035-0.451-0.103
	c-0.178-0.07-0.377-0.139-0.6-0.208s-0.473-0.134-0.75-0.196c-0.279-0.062-0.576-0.093-0.9-0.093c-0.385,0-0.762,0.077-1.131,0.231
	s-0.76,0.408-1.166,0.762s-0.834,0.823-1.281,1.407c-0.447,0.585-0.938,1.301-1.477,2.147v13.664c0,0.123-0.033,0.227-0.092,0.312
	c-0.062,0.084-0.162,0.158-0.301,0.219c-0.139,0.062-0.33,0.108-0.578,0.138c-0.246,0.031-0.561,0.046-0.945,0.046
	c-0.369,0-0.678-0.015-0.924-0.046c-0.244-0.03-0.441-0.076-0.59-0.138c-0.145-0.062-0.244-0.135-0.299-0.219
	c-0.053-0.085-0.08-0.188-0.08-0.312V47.535c0-0.123,0.021-0.227,0.068-0.311c0.047-0.085,0.139-0.162,0.277-0.231
	s0.314-0.116,0.531-0.138c0.215-0.023,0.5-0.035,0.854-0.035c0.34,0,0.619,0.011,0.842,0.035c0.225,0.022,0.398,0.069,0.52,0.138
	c0.125,0.069,0.213,0.146,0.268,0.231c0.053,0.084,0.08,0.188,0.08,0.311v3.023c0.57-0.83,1.104-1.507,1.604-2.031
	c0.5-0.523,0.975-0.934,1.42-1.234c0.445-0.301,0.887-0.508,1.326-0.624s0.881-0.174,1.328-0.174c0.199,0,0.428,0.012,0.682,0.035
	c0.252,0.023,0.52,0.065,0.795,0.127c0.277,0.062,0.527,0.13,0.75,0.208c0.225,0.077,0.381,0.154,0.475,0.23
	c0.092,0.077,0.152,0.15,0.184,0.219c0.031,0.07,0.059,0.158,0.082,0.266c0.021,0.108,0.037,0.265,0.047,0.473
	C327.264,48.262,327.268,48.543,327.268,48.897z"/>
<path fill="#183319" d="M348.318,48.482c0,0.538-0.074,0.926-0.219,1.165c-0.146,0.238-0.336,0.357-0.566,0.357h-2.977
	c0.537,0.554,0.914,1.166,1.131,1.835c0.215,0.669,0.32,1.365,0.32,2.089c0,1.2-0.191,2.262-0.574,3.185
	c-0.387,0.923-0.936,1.704-1.65,2.342c-0.715,0.639-1.566,1.127-2.553,1.466c-0.982,0.339-2.076,0.508-3.275,0.508
	c-0.848,0-1.652-0.112-2.412-0.335c-0.764-0.224-1.35-0.504-1.766-0.843c-0.277,0.277-0.506,0.592-0.682,0.946
	s-0.266,0.762-0.266,1.224c0,0.539,0.25,0.984,0.75,1.338c0.5,0.354,1.166,0.547,1.996,0.577l5.426,0.231
	c1.031,0.031,1.977,0.173,2.838,0.428c0.863,0.253,1.607,0.615,2.24,1.084c0.631,0.469,1.121,1.046,1.477,1.731
	c0.354,0.685,0.531,1.48,0.531,2.388c0,0.954-0.201,1.862-0.602,2.724c-0.4,0.862-1.012,1.62-1.834,2.274
	c-0.824,0.654-1.875,1.169-3.15,1.547c-1.277,0.376-2.787,0.565-4.525,0.565c-1.678,0-3.104-0.143-4.281-0.427
	c-1.176-0.285-2.143-0.673-2.896-1.166c-0.754-0.492-1.299-1.08-1.639-1.766c-0.338-0.685-0.508-1.427-0.508-2.227
	c0-0.508,0.062-1.001,0.186-1.477c0.123-0.477,0.311-0.931,0.564-1.362c0.254-0.431,0.57-0.842,0.945-1.234
	c0.377-0.393,0.812-0.781,1.305-1.166c-0.754-0.385-1.311-0.87-1.674-1.454c-0.359-0.584-0.541-1.216-0.541-1.893
	c0-0.938,0.191-1.777,0.576-2.516c0.385-0.739,0.861-1.4,1.432-1.985c-0.477-0.569-0.855-1.211-1.131-1.927
	c-0.277-0.715-0.416-1.581-0.416-2.596c0-1.186,0.201-2.247,0.6-3.186c0.4-0.939,0.955-1.731,1.662-2.378
	c0.709-0.646,1.559-1.142,2.551-1.488c0.992-0.346,2.074-0.519,3.244-0.519c0.629,0,1.219,0.034,1.766,0.104
	c0.545,0.069,1.057,0.165,1.533,0.288h6.279c0.262,0,0.457,0.127,0.588,0.381C348.252,47.57,348.318,47.958,348.318,48.482z
	 M344.277,70.409c0-0.892-0.363-1.581-1.096-2.065c-0.732-0.485-1.719-0.743-2.965-0.773l-5.379-0.185
	c-0.492,0.385-0.896,0.75-1.211,1.097c-0.316,0.346-0.564,0.677-0.752,0.993c-0.182,0.315-0.311,0.626-0.379,0.934
	c-0.07,0.308-0.105,0.623-0.105,0.947c0,1,0.51,1.758,1.525,2.273c1.014,0.516,2.43,0.773,4.246,0.773
	c1.154,0,2.119-0.112,2.896-0.334c0.777-0.224,1.404-0.52,1.881-0.889c0.479-0.37,0.82-0.792,1.027-1.27
	C344.174,71.432,344.277,70.932,344.277,70.409z M342.363,53.952c0-1.416-0.389-2.52-1.166-3.313
	c-0.777-0.792-1.881-1.188-3.312-1.188c-0.738,0-1.381,0.124-1.928,0.369c-0.545,0.247-1,0.584-1.361,1.016
	c-0.363,0.431-0.631,0.927-0.809,1.489c-0.176,0.562-0.266,1.15-0.266,1.766c0,1.369,0.389,2.447,1.166,3.231
	c0.777,0.785,1.867,1.177,3.268,1.177c0.752,0,1.406-0.119,1.961-0.357c0.555-0.238,1.012-0.569,1.373-0.992
	s0.633-0.911,0.809-1.466C342.273,55.129,342.363,54.552,342.363,53.952z"/>
</svg>
