<?xml version="1.0" encoding="UTF-8" standalone="no"?>
<!-- Generator: Adobe Illustrator 15.0.0, SVG Export Plug-In  -->

<svg
   xmlns:dc="http://purl.org/dc/elements/1.1/"
   xmlns:cc="http://creativecommons.org/ns#"
   xmlns:rdf="http://www.w3.org/1999/02/22-rdf-syntax-ns#"
   xmlns:svg="http://www.w3.org/2000/svg"
   xmlns="http://www.w3.org/2000/svg"
   xmlns:sodipodi="http://sodipodi.sourceforge.net/DTD/sodipodi-0.dtd"
   xmlns:inkscape="http://www.inkscape.org/namespaces/inkscape"
   version="1.1"
   x="0px"
   y="0px"
   width="382.5"
   height="99.095001"
   viewBox="-7.956 -28.683 382.5 99.095001"
   overflow="visible"
   enable-background="new -7.956 -28.683 400 157"
   xml:space="preserve"
   id="svg3129"
   inkscape:version="0.48.4 r9939"
   sodipodi:docname="Air-Sample-Logo.svg"
   style="overflow:visible"><metadata
   id="metadata3169"><rdf:RDF><cc:Work
       rdf:about=""><dc:format>image/svg+xml</dc:format><dc:type
         rdf:resource="http://purl.org/dc/dcmitype/StillImage" /><dc:title></dc:title></cc:Work></rdf:RDF></metadata><sodipodi:namedview
   pagecolor="#ffffff"
   bordercolor="#666666"
   borderopacity="1"
   objecttolerance="10"
   gridtolerance="10"
   guidetolerance="10"
   inkscape:pageopacity="0"
   inkscape:pageshadow="2"
   inkscape:window-width="640"
   inkscape:window-height="480"
   id="namedview3167"
   showgrid="false"
   fit-margin-top="0"
   fit-margin-left="0"
   fit-margin-right="0"
   fit-margin-bottom="0"
   inkscape:zoom="0.715"
   inkscape:cx="192.044"
   inkscape:cy="49.278001"
   inkscape:window-x="1658"
   inkscape:window-y="86"
   inkscape:window-maximized="0"
   inkscape:current-layer="svg3129" />
<defs
   id="defs3131">
</defs>
<rect
   x="5.2940001"
   width="369.25"
   height="88"
   id="rect3133"
   y="-28.683001"
   style="opacity:0.55;fill:#44a9df" />
<rect
   x="-7.7059999"
   y="-14.183"
   stroke-miterlimit="10"
   width="367.5"
   height="84.345001"
   id="rect3135"
   style="fill:#ffffff;stroke:#488fcd;stroke-width:0.5;stroke-miterlimit:10" />
<path
   d="m 45.404,39.603 c 0,0.123 -0.03,0.23 -0.096,0.323 -0.061,0.092 -0.173,0.166 -0.333,0.219 -0.157,0.054 -0.359,0.1 -0.606,0.139 -0.244,0.039 -0.565,0.057 -0.961,0.057 -0.365,0 -0.677,-0.019 -0.938,-0.057 -0.262,-0.04 -0.467,-0.085 -0.619,-0.139 -0.151,-0.053 -0.257,-0.127 -0.322,-0.219 -0.063,-0.093 -0.094,-0.2 -0.094,-0.323 V 13.59 H 41.389 L 30.863,39.718 c -0.047,0.107 -0.112,0.2 -0.196,0.277 -0.085,0.077 -0.208,0.143 -0.369,0.196 -0.162,0.053 -0.354,0.093 -0.577,0.116 -0.224,0.022 -0.489,0.034 -0.796,0.034 -0.324,0 -0.601,-0.015 -0.831,-0.046 -0.231,-0.03 -0.423,-0.072 -0.578,-0.127 -0.154,-0.053 -0.272,-0.119 -0.357,-0.196 -0.084,-0.076 -0.143,-0.161 -0.173,-0.253 L 16.922,13.59 h -0.023 v 26.013 c 0,0.123 -0.031,0.23 -0.096,0.323 -0.061,0.092 -0.173,0.166 -0.333,0.219 -0.157,0.054 -0.363,0.1 -0.617,0.139 -0.254,0.039 -0.579,0.057 -0.976,0.057 -0.378,0 -0.696,-0.019 -0.95,-0.057 -0.254,-0.04 -0.456,-0.085 -0.606,-0.139 -0.152,-0.053 -0.254,-0.127 -0.309,-0.219 -0.056,-0.093 -0.083,-0.2 -0.083,-0.323 V 12.136 c 0,-0.647 0.171,-1.108 0.516,-1.385 0.344,-0.277 0.727,-0.416 1.148,-0.416 h 2.437 c 0.5,0 0.939,0.046 1.314,0.139 0.375,0.093 0.702,0.238 0.982,0.439 0.283,0.2 0.518,0.454 0.704,0.761 0.189,0.308 0.353,0.67 0.493,1.084 l 8.54,21.627 h 0.116 l 8.886,-21.558 c 0.172,-0.461 0.36,-0.854 0.562,-1.177 0.204,-0.323 0.427,-0.581 0.669,-0.774 0.243,-0.191 0.512,-0.33 0.81,-0.415 0.296,-0.085 0.641,-0.127 1.031,-0.127 h 2.556 c 0.235,0 0.458,0.034 0.667,0.104 0.211,0.069 0.393,0.177 0.541,0.323 0.148,0.146 0.27,0.331 0.363,0.554 0.095,0.223 0.141,0.496 0.141,0.819 v 27.469 z"
   id="path3137"
   inkscape:connector-curvature="0"
   style="fill:#183319" />
<path
   d="m 62.369,40.202 -2.77,7.64 c -0.093,0.247 -0.328,0.435 -0.704,0.565 -0.377,0.132 -0.951,0.197 -1.719,0.197 -0.4,0 -0.723,-0.019 -0.97,-0.058 -0.246,-0.039 -0.434,-0.104 -0.565,-0.197 -0.131,-0.091 -0.204,-0.215 -0.219,-0.369 -0.016,-0.154 0.023,-0.338 0.115,-0.554 l 2.862,-7.225 c -0.138,-0.062 -0.27,-0.161 -0.392,-0.299 -0.123,-0.14 -0.208,-0.286 -0.254,-0.439 L 50.344,19.614 c -0.124,-0.323 -0.185,-0.578 -0.185,-0.762 0,-0.184 0.062,-0.331 0.185,-0.438 0.123,-0.107 0.323,-0.181 0.6,-0.22 0.277,-0.039 0.646,-0.057 1.108,-0.057 0.462,0 0.823,0.011 1.085,0.035 0.262,0.022 0.47,0.065 0.624,0.127 0.154,0.062 0.265,0.15 0.334,0.265 0.07,0.115 0.143,0.274 0.22,0.473 l 5.932,16.665 h 0.069 L 66.04,18.945 c 0.093,-0.292 0.205,-0.481 0.336,-0.565 0.13,-0.085 0.326,-0.146 0.588,-0.185 0.261,-0.039 0.639,-0.057 1.13,-0.057 0.432,0 0.785,0.019 1.062,0.057 0.277,0.039 0.48,0.112 0.612,0.22 0.13,0.108 0.196,0.254 0.196,0.438 0,0.185 -0.046,0.416 -0.139,0.692 l -7.456,20.657 z"
   id="path3139"
   inkscape:connector-curvature="0"
   style="fill:#183319" />
<path
   d="m 97.107,38.795 c 0.123,0.339 0.188,0.611 0.196,0.819 0.007,0.208 -0.051,0.366 -0.174,0.473 -0.122,0.108 -0.326,0.177 -0.611,0.208 -0.284,0.031 -0.665,0.046 -1.143,0.046 -0.477,0 -0.857,-0.012 -1.142,-0.034 -0.285,-0.023 -0.5,-0.062 -0.646,-0.116 -0.146,-0.053 -0.254,-0.126 -0.323,-0.22 -0.07,-0.091 -0.135,-0.208 -0.196,-0.346 L 90.506,32.354 H 78.088 l -2.447,7.178 c -0.045,0.139 -0.108,0.257 -0.185,0.357 -0.077,0.101 -0.189,0.185 -0.335,0.254 -0.146,0.069 -0.354,0.12 -0.624,0.15 -0.269,0.031 -0.619,0.046 -1.05,0.046 -0.446,0 -0.812,-0.019 -1.096,-0.057 -0.285,-0.04 -0.485,-0.112 -0.6,-0.219 -0.115,-0.108 -0.169,-0.266 -0.161,-0.474 0.007,-0.208 0.073,-0.48 0.196,-0.819 L 81.804,11.028 c 0.062,-0.169 0.142,-0.308 0.242,-0.416 0.1,-0.107 0.247,-0.192 0.439,-0.254 0.192,-0.062 0.438,-0.104 0.739,-0.127 0.3,-0.022 0.681,-0.035 1.143,-0.035 0.492,0 0.9,0.012 1.223,0.035 0.323,0.023 0.584,0.065 0.785,0.127 0.2,0.062 0.354,0.15 0.461,0.266 0.107,0.116 0.192,0.258 0.254,0.427 L 97.107,38.795 z M 84.25,14.305 H 84.227 L 79.081,29.193 H 89.467 L 84.25,14.305 z"
   id="path3141"
   inkscape:connector-curvature="0"
   style="fill:#183319" />
<path
   d="m 105.901,11.836 c 0,0.893 -0.169,1.5 -0.508,1.824 -0.338,0.323 -0.961,0.484 -1.869,0.484 -0.893,0 -1.504,-0.158 -1.835,-0.473 -0.331,-0.316 -0.497,-0.913 -0.497,-1.79 0,-0.892 0.169,-1.5 0.508,-1.823 0.339,-0.323 0.962,-0.485 1.87,-0.485 0.893,0 1.504,0.158 1.835,0.473 0.33,0.317 0.496,0.912 0.496,1.79 z m -0.439,27.79 c 0,0.123 -0.03,0.227 -0.091,0.312 -0.063,0.084 -0.163,0.158 -0.301,0.219 -0.138,0.062 -0.331,0.108 -0.577,0.138 -0.247,0.031 -0.562,0.046 -0.946,0.046 -0.37,0 -0.677,-0.015 -0.924,-0.046 -0.246,-0.03 -0.442,-0.076 -0.588,-0.138 -0.146,-0.062 -0.247,-0.135 -0.299,-0.219 -0.054,-0.085 -0.082,-0.188 -0.082,-0.312 V 18.852 c 0,-0.108 0.027,-0.208 0.082,-0.301 0.053,-0.091 0.153,-0.168 0.299,-0.23 0.146,-0.062 0.342,-0.107 0.588,-0.138 0.247,-0.031 0.554,-0.046 0.924,-0.046 0.385,0 0.7,0.015 0.946,0.046 0.246,0.031 0.438,0.077 0.577,0.138 0.139,0.061 0.238,0.139 0.301,0.23 0.062,0.093 0.091,0.193 0.091,0.301 v 20.774 z"
   id="path3143"
   inkscape:connector-curvature="0"
   style="fill:#183319" />
<path
   d="m 124.643,20.214 c 0,0.338 -0.007,0.623 -0.023,0.853 -0.015,0.232 -0.046,0.412 -0.093,0.543 -0.046,0.131 -0.104,0.23 -0.173,0.3 -0.069,0.068 -0.165,0.103 -0.289,0.103 -0.123,0 -0.273,-0.035 -0.45,-0.103 -0.177,-0.07 -0.377,-0.139 -0.6,-0.208 -0.223,-0.069 -0.473,-0.134 -0.75,-0.196 -0.277,-0.062 -0.577,-0.093 -0.9,-0.093 -0.384,0 -0.762,0.077 -1.131,0.231 -0.369,0.154 -0.758,0.408 -1.166,0.762 -0.408,0.354 -0.834,0.823 -1.281,1.407 -0.445,0.585 -0.938,1.301 -1.477,2.147 v 13.664 c 0,0.123 -0.03,0.227 -0.092,0.312 -0.062,0.084 -0.162,0.158 -0.3,0.219 -0.139,0.062 -0.331,0.108 -0.578,0.138 -0.246,0.031 -0.561,0.046 -0.946,0.046 -0.37,0 -0.677,-0.015 -0.923,-0.046 -0.246,-0.03 -0.442,-0.076 -0.589,-0.138 -0.146,-0.062 -0.246,-0.135 -0.3,-0.219 -0.053,-0.085 -0.081,-0.188 -0.081,-0.312 V 18.852 c 0,-0.123 0.023,-0.227 0.069,-0.311 0.046,-0.085 0.138,-0.162 0.277,-0.231 0.138,-0.069 0.315,-0.116 0.531,-0.138 0.215,-0.023 0.499,-0.035 0.853,-0.035 0.339,0 0.62,0.011 0.843,0.035 0.223,0.022 0.396,0.069 0.519,0.138 0.123,0.069 0.211,0.146 0.265,0.231 0.055,0.084 0.082,0.188 0.082,0.311 v 3.023 c 0.569,-0.83 1.104,-1.507 1.604,-2.031 0.5,-0.523 0.973,-0.934 1.419,-1.234 0.446,-0.301 0.889,-0.508 1.327,-0.624 0.439,-0.116 0.88,-0.174 1.328,-0.174 0.2,0 0.426,0.012 0.681,0.035 0.254,0.023 0.519,0.065 0.796,0.127 0.277,0.062 0.527,0.13 0.75,0.208 0.223,0.077 0.381,0.154 0.473,0.23 0.093,0.077 0.155,0.15 0.185,0.219 0.031,0.07 0.058,0.158 0.081,0.266 0.023,0.108 0.038,0.265 0.046,0.473 0.009,0.209 0.013,0.49 0.013,0.844 z"
   id="path3145"
   inkscape:connector-curvature="0"
   style="fill:#183319" />
<path
   d="m 145.463,31.824 c 0,1.4 -0.258,2.646 -0.774,3.739 -0.515,1.092 -1.231,2.019 -2.146,2.781 -0.915,0.762 -1.992,1.334 -3.232,1.72 -1.238,0.384 -2.573,0.577 -4.004,0.577 -1.001,0 -1.927,-0.085 -2.781,-0.254 -0.854,-0.169 -1.616,-0.377 -2.285,-0.624 -0.669,-0.246 -1.231,-0.499 -1.685,-0.761 -0.454,-0.261 -0.769,-0.485 -0.946,-0.669 -0.177,-0.185 -0.308,-0.419 -0.393,-0.704 -0.085,-0.285 -0.127,-0.666 -0.127,-1.143 0,-0.339 0.016,-0.619 0.046,-0.843 0.031,-0.223 0.077,-0.404 0.139,-0.542 0.061,-0.139 0.138,-0.235 0.23,-0.289 0.092,-0.054 0.2,-0.081 0.323,-0.081 0.215,0 0.52,0.131 0.912,0.393 0.393,0.261 0.896,0.545 1.512,0.853 0.615,0.309 1.358,0.597 2.228,0.866 0.87,0.27 1.873,0.404 3.012,0.404 0.862,0 1.65,-0.115 2.366,-0.346 0.715,-0.231 1.331,-0.558 1.847,-0.981 0.516,-0.423 0.912,-0.942 1.189,-1.558 0.276,-0.616 0.415,-1.316 0.415,-2.101 0,-0.846 -0.192,-1.569 -0.577,-2.169 -0.385,-0.601 -0.892,-1.128 -1.523,-1.582 -0.631,-0.454 -1.351,-0.868 -2.159,-1.246 -0.807,-0.377 -1.635,-0.762 -2.48,-1.154 -0.847,-0.393 -1.67,-0.827 -2.47,-1.304 -0.8,-0.478 -1.516,-1.039 -2.146,-1.686 -0.631,-0.645 -1.143,-1.403 -1.535,-2.273 -0.392,-0.869 -0.588,-1.912 -0.588,-3.127 0,-1.247 0.227,-2.359 0.681,-3.336 0.454,-0.977 1.084,-1.796 1.893,-2.458 0.809,-0.662 1.77,-1.166 2.884,-1.512 1.116,-0.347 2.32,-0.519 3.613,-0.519 0.661,0 1.327,0.057 1.997,0.172 0.669,0.116 1.3,0.27 1.892,0.462 0.593,0.192 1.121,0.408 1.582,0.646 0.462,0.239 0.765,0.432 0.912,0.578 0.146,0.146 0.242,0.261 0.289,0.347 0.046,0.084 0.085,0.191 0.115,0.322 0.03,0.132 0.054,0.29 0.069,0.474 0.015,0.184 0.023,0.423 0.023,0.715 0,0.277 -0.012,0.523 -0.035,0.739 -0.022,0.216 -0.058,0.396 -0.104,0.542 -0.046,0.146 -0.112,0.254 -0.197,0.323 -0.084,0.069 -0.18,0.104 -0.288,0.104 -0.169,0 -0.436,-0.108 -0.797,-0.324 -0.361,-0.215 -0.803,-0.458 -1.327,-0.727 -0.523,-0.269 -1.143,-0.516 -1.858,-0.738 -0.715,-0.224 -1.52,-0.335 -2.412,-0.335 -0.832,0 -1.554,0.111 -2.169,0.335 -0.616,0.223 -1.124,0.519 -1.524,0.889 -0.4,0.369 -0.7,0.808 -0.901,1.316 -0.2,0.507 -0.3,1.045 -0.3,1.615 0,0.831 0.193,1.546 0.577,2.146 0.385,0.601 0.896,1.131 1.535,1.593 0.638,0.461 1.366,0.885 2.181,1.27 0.816,0.385 1.647,0.773 2.494,1.166 0.846,0.393 1.676,0.823 2.493,1.292 0.815,0.469 1.542,1.024 2.181,1.662 0.638,0.639 1.154,1.393 1.546,2.263 0.391,0.87 0.587,1.897 0.587,3.082 z"
   id="path3147"
   inkscape:connector-curvature="0"
   style="fill:#183319" />
<path
   d="m 166.351,39.649 c 0,0.185 -0.062,0.323 -0.185,0.416 -0.123,0.092 -0.292,0.161 -0.507,0.207 -0.216,0.046 -0.532,0.069 -0.946,0.069 -0.401,0 -0.72,-0.023 -0.958,-0.069 -0.239,-0.046 -0.413,-0.115 -0.52,-0.207 -0.107,-0.093 -0.161,-0.231 -0.161,-0.416 v -2.078 c -0.908,0.97 -1.92,1.723 -3.036,2.262 -1.115,0.539 -2.296,0.808 -3.543,0.808 -1.093,0 -2.082,-0.143 -2.966,-0.427 -0.885,-0.285 -1.639,-0.696 -2.262,-1.235 -0.623,-0.538 -1.107,-1.2 -1.454,-1.984 -0.346,-0.786 -0.519,-1.678 -0.519,-2.678 0,-1.17 0.238,-2.185 0.715,-3.047 0.477,-0.861 1.162,-1.577 2.054,-2.146 0.893,-0.57 1.986,-0.997 3.278,-1.282 1.292,-0.284 2.746,-0.427 4.362,-0.427 h 2.862 V 25.8 c 0,-0.801 -0.084,-1.509 -0.253,-2.124 -0.169,-0.616 -0.443,-1.127 -0.82,-1.535 -0.378,-0.408 -0.866,-0.715 -1.466,-0.923 -0.6,-0.208 -1.338,-0.311 -2.215,-0.311 -0.939,0 -1.781,0.111 -2.528,0.334 -0.747,0.223 -1.401,0.469 -1.962,0.738 -0.562,0.27 -1.031,0.516 -1.408,0.739 -0.378,0.223 -0.658,0.335 -0.843,0.335 -0.124,0 -0.231,-0.032 -0.323,-0.093 -0.092,-0.062 -0.173,-0.155 -0.242,-0.278 -0.07,-0.123 -0.119,-0.28 -0.15,-0.473 -0.031,-0.193 -0.046,-0.404 -0.046,-0.635 0,-0.384 0.027,-0.688 0.081,-0.911 0.055,-0.224 0.185,-0.435 0.393,-0.635 0.208,-0.201 0.565,-0.436 1.073,-0.705 0.508,-0.269 1.093,-0.516 1.754,-0.738 0.661,-0.224 1.385,-0.408 2.169,-0.554 0.785,-0.146 1.577,-0.22 2.377,-0.22 1.493,0 2.763,0.169 3.808,0.508 1.046,0.338 1.893,0.835 2.54,1.489 0.646,0.654 1.117,1.466 1.408,2.435 0.293,0.97 0.438,2.101 0.438,3.393 v 14.013 z m -3.785,-9.487 h -3.254 c -1.047,0 -1.955,0.088 -2.724,0.266 -0.769,0.177 -1.408,0.438 -1.916,0.785 -0.508,0.347 -0.881,0.762 -1.12,1.246 -0.238,0.485 -0.357,1.042 -0.357,1.673 0,1.078 0.343,1.935 1.027,2.574 0.684,0.639 1.643,0.958 2.874,0.958 1,0 1.927,-0.254 2.782,-0.762 0.854,-0.508 1.75,-1.286 2.688,-2.332 v -4.408 z"
   id="path3149"
   inkscape:connector-curvature="0"
   style="fill:#183319" />
<path
   d="m 204.157,39.626 c 0,0.123 -0.031,0.227 -0.09,0.312 -0.062,0.084 -0.164,0.158 -0.301,0.219 -0.139,0.062 -0.33,0.108 -0.578,0.138 -0.246,0.031 -0.555,0.046 -0.924,0.046 -0.383,0 -0.699,-0.015 -0.945,-0.046 -0.246,-0.03 -0.443,-0.076 -0.59,-0.138 -0.146,-0.062 -0.25,-0.135 -0.311,-0.219 -0.062,-0.085 -0.092,-0.188 -0.092,-0.312 V 27 c 0,-0.877 -0.076,-1.677 -0.23,-2.4 -0.154,-0.723 -0.4,-1.346 -0.738,-1.869 -0.338,-0.523 -0.771,-0.924 -1.293,-1.2 -0.523,-0.278 -1.139,-0.416 -1.848,-0.416 -0.877,0 -1.758,0.338 -2.643,1.015 -0.885,0.677 -1.857,1.669 -2.92,2.978 v 14.518 c 0,0.123 -0.029,0.227 -0.092,0.312 -0.061,0.084 -0.164,0.158 -0.312,0.219 -0.146,0.062 -0.342,0.108 -0.588,0.138 -0.246,0.031 -0.553,0.046 -0.924,0.046 -0.354,0 -0.658,-0.015 -0.91,-0.046 -0.256,-0.03 -0.455,-0.076 -0.6,-0.138 -0.148,-0.062 -0.248,-0.135 -0.301,-0.219 -0.055,-0.085 -0.08,-0.188 -0.08,-0.312 V 27 c 0,-0.877 -0.086,-1.677 -0.256,-2.4 -0.168,-0.723 -0.422,-1.346 -0.762,-1.869 -0.338,-0.523 -0.764,-0.924 -1.279,-1.2 -0.518,-0.278 -1.129,-0.416 -1.835,-0.416 -0.878,0 -1.763,0.338 -2.655,1.015 -0.893,0.677 -1.863,1.669 -2.908,2.978 v 14.518 c 0,0.123 -0.03,0.227 -0.092,0.312 -0.062,0.084 -0.162,0.158 -0.302,0.219 -0.138,0.062 -0.329,0.108 -0.575,0.138 -0.248,0.031 -0.562,0.046 -0.948,0.046 -0.369,0 -0.675,-0.015 -0.923,-0.046 -0.246,-0.03 -0.441,-0.076 -0.588,-0.138 -0.146,-0.062 -0.246,-0.135 -0.301,-0.219 -0.053,-0.085 -0.08,-0.188 -0.08,-0.312 V 18.852 c 0,-0.123 0.021,-0.227 0.068,-0.311 0.047,-0.085 0.14,-0.162 0.279,-0.231 0.137,-0.069 0.314,-0.116 0.529,-0.138 0.215,-0.023 0.5,-0.035 0.854,-0.035 0.34,0 0.62,0.011 0.842,0.035 0.225,0.022 0.398,0.069 0.521,0.138 0.123,0.069 0.211,0.146 0.266,0.231 0.054,0.084 0.081,0.188 0.081,0.311 v 2.747 c 1.168,-1.308 2.303,-2.266 3.403,-2.873 1.101,-0.608 2.212,-0.913 3.335,-0.913 0.863,0 1.637,0.1 2.32,0.301 0.686,0.2 1.289,0.48 1.812,0.842 0.523,0.362 0.969,0.793 1.338,1.292 0.371,0.501 0.678,1.058 0.924,1.674 0.693,-0.754 1.35,-1.393 1.975,-1.916 0.621,-0.524 1.223,-0.947 1.799,-1.269 0.578,-0.324 1.141,-0.559 1.686,-0.705 0.547,-0.146 1.096,-0.22 1.65,-0.22 1.338,0 2.463,0.235 3.369,0.705 0.908,0.469 1.643,1.097 2.205,1.881 0.562,0.784 0.961,1.703 1.199,2.758 0.24,1.054 0.357,2.166 0.357,3.335 v 13.135 z"
   id="path3151"
   inkscape:connector-curvature="0"
   style="fill:#183319" />
<path
   d="m 230.218,28.916 c 0,1.815 -0.197,3.446 -0.59,4.894 -0.393,1.447 -0.969,2.674 -1.73,3.681 -0.762,1.008 -1.705,1.785 -2.828,2.332 -1.123,0.545 -2.408,0.819 -3.854,0.819 -0.615,0 -1.186,-0.062 -1.707,-0.185 -0.525,-0.123 -1.037,-0.315 -1.537,-0.576 -0.498,-0.263 -0.996,-0.592 -1.486,-0.993 -0.494,-0.4 -1.018,-0.869 -1.572,-1.408 v 10.387 c 0,0.124 -0.029,0.231 -0.092,0.323 -0.061,0.092 -0.16,0.169 -0.301,0.231 -0.137,0.061 -0.33,0.108 -0.576,0.138 -0.246,0.031 -0.561,0.046 -0.945,0.046 -0.369,0 -0.678,-0.015 -0.924,-0.046 -0.246,-0.03 -0.443,-0.077 -0.588,-0.138 -0.146,-0.062 -0.246,-0.139 -0.301,-0.231 -0.053,-0.092 -0.08,-0.2 -0.08,-0.323 V 18.852 c 0,-0.138 0.023,-0.25 0.068,-0.334 0.047,-0.084 0.139,-0.157 0.277,-0.219 0.138,-0.062 0.316,-0.104 0.531,-0.127 0.213,-0.023 0.477,-0.035 0.785,-0.035 0.322,0 0.586,0.011 0.797,0.035 0.207,0.022 0.379,0.065 0.518,0.127 0.141,0.062 0.236,0.135 0.289,0.219 0.053,0.085 0.08,0.196 0.08,0.334 v 2.793 c 0.631,-0.646 1.24,-1.208 1.824,-1.685 0.584,-0.478 1.174,-0.874 1.766,-1.189 0.592,-0.315 1.199,-0.554 1.824,-0.715 0.621,-0.162 1.281,-0.243 1.973,-0.243 1.508,0 2.793,0.292 3.854,0.877 1.062,0.585 1.928,1.385 2.598,2.4 0.67,1.016 1.158,2.197 1.465,3.543 0.308,1.348 0.462,2.774 0.462,4.283 z m -3.945,0.439 c 0,-1.062 -0.082,-2.089 -0.246,-3.082 -0.16,-0.992 -0.441,-1.873 -0.834,-2.643 -0.396,-0.769 -0.926,-1.384 -1.592,-1.846 -0.668,-0.462 -1.494,-0.693 -2.486,-0.693 -0.494,0 -0.982,0.073 -1.463,0.219 -0.48,0.147 -0.967,0.377 -1.463,0.692 -0.494,0.316 -1.014,0.731 -1.555,1.246 -0.543,0.516 -1.115,1.151 -1.721,1.905 v 8.264 c 1.053,1.276 2.051,2.253 2.998,2.931 0.941,0.677 1.936,1.016 2.973,1.016 0.959,0 1.781,-0.231 2.473,-0.692 0.688,-0.462 1.246,-1.077 1.672,-1.847 0.424,-0.77 0.738,-1.631 0.939,-2.585 0.201,-0.954 0.305,-1.916 0.305,-2.885 z"
   id="path3153"
   inkscape:connector-curvature="0"
   style="fill:#183319" />
<path
   d="m 239.751,39.626 c 0,0.123 -0.031,0.227 -0.094,0.312 -0.061,0.084 -0.162,0.158 -0.299,0.219 -0.141,0.062 -0.332,0.108 -0.578,0.138 -0.246,0.031 -0.562,0.046 -0.945,0.046 -0.369,0 -0.678,-0.015 -0.924,-0.046 -0.246,-0.03 -0.443,-0.076 -0.59,-0.138 -0.145,-0.062 -0.246,-0.135 -0.299,-0.219 -0.055,-0.085 -0.08,-0.188 -0.08,-0.312 V 8.789 c 0,-0.123 0.025,-0.231 0.08,-0.324 0.053,-0.092 0.154,-0.169 0.299,-0.231 0.146,-0.061 0.344,-0.107 0.59,-0.138 0.246,-0.031 0.555,-0.046 0.924,-0.046 0.383,0 0.699,0.015 0.945,0.046 0.246,0.031 0.438,0.077 0.578,0.138 0.137,0.062 0.238,0.139 0.299,0.231 0.062,0.092 0.094,0.201 0.094,0.324 v 30.837 z"
   id="path3155"
   inkscape:connector-curvature="0"
   style="fill:#183319" />
<path
   d="m 264.515,28.339 c 0,0.6 -0.148,1.027 -0.451,1.281 -0.301,0.254 -0.645,0.381 -1.033,0.381 h -13.678 c 0,1.154 0.115,2.192 0.348,3.116 0.23,0.923 0.615,1.716 1.158,2.377 0.541,0.662 1.246,1.169 2.109,1.523 0.867,0.354 1.928,0.531 3.18,0.531 0.99,0 1.871,-0.081 2.646,-0.242 0.771,-0.162 1.439,-0.342 2.004,-0.543 0.562,-0.199 1.027,-0.381 1.393,-0.542 0.363,-0.162 0.637,-0.243 0.82,-0.243 0.111,0 0.207,0.028 0.291,0.081 0.086,0.054 0.15,0.135 0.199,0.243 0.047,0.108 0.08,0.258 0.104,0.45 0.024,0.192 0.035,0.427 0.035,0.704 0,0.2 -0.008,0.374 -0.023,0.52 -0.015,0.146 -0.035,0.277 -0.059,0.393 -0.021,0.115 -0.061,0.219 -0.115,0.312 -0.053,0.092 -0.121,0.181 -0.207,0.266 -0.084,0.085 -0.334,0.223 -0.75,0.415 -0.416,0.192 -0.955,0.381 -1.615,0.566 -0.662,0.184 -1.428,0.35 -2.297,0.496 -0.871,0.146 -1.797,0.219 -2.781,0.219 -1.709,0 -3.205,-0.238 -4.49,-0.715 -1.283,-0.478 -2.365,-1.185 -3.244,-2.124 -0.875,-0.939 -1.537,-2.116 -1.984,-3.532 -0.443,-1.416 -0.668,-3.062 -0.668,-4.939 0,-1.785 0.23,-3.389 0.693,-4.812 0.459,-1.423 1.125,-2.631 1.996,-3.624 0.869,-0.993 1.918,-1.755 3.15,-2.285 1.23,-0.531 2.607,-0.797 4.131,-0.797 1.631,0 3.021,0.262 4.166,0.785 1.146,0.524 2.09,1.227 2.828,2.112 0.738,0.886 1.279,1.923 1.627,3.116 0.346,1.192 0.518,2.465 0.518,3.82 v 0.691 z m -3.828,-1.131 c 0.045,-2 -0.402,-3.57 -1.338,-4.709 -0.936,-1.138 -2.326,-1.708 -4.166,-1.708 -0.945,0 -1.773,0.177 -2.484,0.531 -0.715,0.354 -1.311,0.823 -1.791,1.408 -0.48,0.584 -0.852,1.266 -1.115,2.042 -0.264,0.777 -0.41,1.588 -0.439,2.435 h 11.333 z"
   id="path3157"
   inkscape:connector-curvature="0"
   style="fill:#183319" />
<path
   d="m 275.226,37.687 c 0,1.092 -0.18,1.819 -0.543,2.181 -0.361,0.361 -1.02,0.542 -1.973,0.542 -0.924,0 -1.561,-0.177 -1.914,-0.53 -0.355,-0.354 -0.533,-1.062 -0.533,-2.124 0,-1.093 0.182,-1.82 0.543,-2.182 0.363,-0.361 1.02,-0.542 1.973,-0.542 0.924,0 1.562,0.177 1.918,0.531 0.353,0.355 0.529,1.062 0.529,2.124 z"
   id="path3159"
   inkscape:connector-curvature="0"
   style="fill:#183319" />
<path
   d="m 301.562,29.008 c 0,1.693 -0.223,3.25 -0.67,4.674 -0.445,1.423 -1.111,2.65 -1.996,3.682 -0.885,1.031 -1.992,1.834 -3.322,2.412 -1.332,0.577 -2.875,0.866 -4.627,0.866 -1.711,0 -3.197,-0.254 -4.469,-0.761 -1.268,-0.508 -2.326,-1.247 -3.174,-2.216 -0.846,-0.969 -1.477,-2.147 -1.893,-3.532 -0.416,-1.384 -0.621,-2.954 -0.621,-4.708 0,-1.693 0.219,-3.251 0.656,-4.675 0.439,-1.422 1.1,-2.65 1.984,-3.682 0.885,-1.031 1.988,-1.831 3.312,-2.399 1.324,-0.57 2.871,-0.855 4.641,-0.855 1.707,0 3.195,0.254 4.465,0.762 1.27,0.508 2.328,1.247 3.174,2.216 0.846,0.969 1.482,2.146 1.904,3.531 0.425,1.384 0.636,2.946 0.636,4.685 z m -3.948,0.254 c 0,-1.123 -0.105,-2.185 -0.314,-3.185 -0.209,-1 -0.555,-1.877 -1.035,-2.632 -0.482,-0.753 -1.135,-1.349 -1.959,-1.788 -0.82,-0.439 -1.846,-0.658 -3.072,-0.658 -1.133,0 -2.109,0.201 -2.924,0.6 -0.814,0.4 -1.486,0.966 -2.014,1.697 -0.528,0.731 -0.922,1.596 -1.176,2.596 -0.256,1.001 -0.385,2.093 -0.385,3.278 0,1.138 0.104,2.208 0.314,3.209 0.209,1 0.559,1.873 1.047,2.62 0.49,0.745 1.146,1.338 1.969,1.777 0.823,0.439 1.848,0.658 3.076,0.658 1.117,0 2.086,-0.2 2.91,-0.601 0.822,-0.4 1.496,-0.962 2.027,-1.685 0.525,-0.724 0.916,-1.585 1.162,-2.585 0.249,-1.001 0.374,-2.101 0.374,-3.301 z"
   id="path3161"
   inkscape:connector-curvature="0"
   style="fill:#183319" />
<path
   d="m 319.312,20.214 c 0,0.338 -0.008,0.623 -0.023,0.853 -0.014,0.232 -0.047,0.412 -0.094,0.543 -0.043,0.131 -0.104,0.23 -0.172,0.3 -0.068,0.068 -0.164,0.103 -0.287,0.103 -0.125,0 -0.273,-0.035 -0.451,-0.103 -0.178,-0.07 -0.377,-0.139 -0.6,-0.208 -0.223,-0.069 -0.473,-0.134 -0.75,-0.196 -0.279,-0.062 -0.576,-0.093 -0.9,-0.093 -0.385,0 -0.762,0.077 -1.131,0.231 -0.369,0.154 -0.76,0.408 -1.166,0.762 -0.406,0.354 -0.834,0.823 -1.281,1.407 -0.447,0.585 -0.938,1.301 -1.477,2.147 v 13.664 c 0,0.123 -0.033,0.227 -0.092,0.312 -0.062,0.084 -0.162,0.158 -0.301,0.219 -0.139,0.062 -0.33,0.108 -0.578,0.138 -0.246,0.031 -0.561,0.046 -0.945,0.046 -0.369,0 -0.678,-0.015 -0.924,-0.046 -0.244,-0.03 -0.441,-0.076 -0.59,-0.138 -0.145,-0.062 -0.244,-0.135 -0.299,-0.219 -0.053,-0.085 -0.08,-0.188 -0.08,-0.312 V 18.852 c 0,-0.123 0.021,-0.227 0.068,-0.311 0.047,-0.085 0.139,-0.162 0.277,-0.231 0.138,-0.069 0.314,-0.116 0.531,-0.138 0.215,-0.023 0.5,-0.035 0.854,-0.035 0.34,0 0.619,0.011 0.842,0.035 0.225,0.022 0.398,0.069 0.52,0.138 0.125,0.069 0.213,0.146 0.268,0.231 0.053,0.084 0.08,0.188 0.08,0.311 v 3.023 c 0.57,-0.83 1.104,-1.507 1.604,-2.031 0.5,-0.523 0.975,-0.934 1.42,-1.234 0.445,-0.301 0.887,-0.508 1.326,-0.624 0.439,-0.116 0.881,-0.174 1.328,-0.174 0.199,0 0.428,0.012 0.682,0.035 0.252,0.023 0.52,0.065 0.795,0.127 0.277,0.062 0.527,0.13 0.75,0.208 0.225,0.077 0.381,0.154 0.475,0.23 0.092,0.077 0.152,0.15 0.184,0.219 0.031,0.07 0.059,0.158 0.082,0.266 0.021,0.108 0.037,0.265 0.047,0.473 0.004,0.209 0.008,0.49 0.008,0.844 z"
   id="path3163"
   inkscape:connector-curvature="0"
   style="fill:#183319" />
<path
   d="m 340.362,19.799 c 0,0.538 -0.074,0.926 -0.219,1.165 -0.146,0.238 -0.336,0.357 -0.566,0.357 H 336.6 c 0.537,0.554 0.914,1.166 1.131,1.835 0.215,0.669 0.32,1.365 0.32,2.089 0,1.2 -0.191,2.262 -0.574,3.185 -0.387,0.923 -0.936,1.704 -1.65,2.342 -0.715,0.639 -1.566,1.127 -2.553,1.466 -0.982,0.339 -2.076,0.508 -3.275,0.508 -0.848,0 -1.652,-0.112 -2.412,-0.335 -0.764,-0.224 -1.35,-0.504 -1.766,-0.843 -0.277,0.277 -0.506,0.592 -0.682,0.946 -0.176,0.354 -0.266,0.762 -0.266,1.224 0,0.539 0.25,0.984 0.75,1.338 0.5,0.354 1.166,0.547 1.996,0.577 l 5.426,0.231 c 1.031,0.031 1.977,0.173 2.838,0.428 0.863,0.253 1.607,0.615 2.24,1.084 0.631,0.469 1.121,1.046 1.477,1.731 0.354,0.685 0.531,1.48 0.531,2.388 0,0.954 -0.201,1.862 -0.602,2.724 -0.4,0.862 -1.012,1.62 -1.834,2.274 -0.824,0.654 -1.875,1.169 -3.15,1.547 -1.277,0.376 -2.787,0.565 -4.525,0.565 -1.678,0 -3.104,-0.143 -4.281,-0.427 -1.176,-0.285 -2.143,-0.673 -2.896,-1.166 -0.754,-0.492 -1.299,-1.08 -1.639,-1.766 -0.338,-0.685 -0.508,-1.427 -0.508,-2.227 0,-0.508 0.062,-1.001 0.186,-1.477 0.123,-0.477 0.311,-0.931 0.564,-1.362 0.254,-0.431 0.57,-0.842 0.945,-1.234 0.377,-0.393 0.812,-0.781 1.305,-1.166 -0.754,-0.385 -1.311,-0.87 -1.674,-1.454 -0.359,-0.584 -0.541,-1.216 -0.541,-1.893 0,-0.938 0.191,-1.777 0.576,-2.516 0.385,-0.739 0.861,-1.4 1.432,-1.985 -0.477,-0.569 -0.855,-1.211 -1.131,-1.927 -0.277,-0.715 -0.416,-1.581 -0.416,-2.596 0,-1.186 0.201,-2.247 0.6,-3.186 0.4,-0.939 0.955,-1.731 1.662,-2.378 0.709,-0.646 1.559,-1.142 2.551,-1.488 0.992,-0.346 2.074,-0.519 3.244,-0.519 0.629,0 1.219,0.034 1.766,0.104 0.545,0.069 1.057,0.165 1.533,0.288 h 6.279 c 0.262,0 0.457,0.127 0.588,0.381 0.131,0.256 0.197,0.644 0.197,1.168 z m -4.041,21.927 c 0,-0.892 -0.363,-1.581 -1.096,-2.065 -0.732,-0.485 -1.719,-0.743 -2.965,-0.773 l -5.379,-0.185 c -0.492,0.385 -0.896,0.75 -1.211,1.097 -0.316,0.346 -0.564,0.677 -0.752,0.993 -0.182,0.315 -0.311,0.626 -0.379,0.934 -0.07,0.308 -0.105,0.623 -0.105,0.947 0,1 0.51,1.758 1.525,2.273 1.014,0.516 2.43,0.773 4.246,0.773 1.154,0 2.119,-0.112 2.896,-0.334 0.777,-0.224 1.404,-0.52 1.881,-0.889 0.479,-0.37 0.82,-0.792 1.027,-1.27 0.209,-0.478 0.312,-0.978 0.312,-1.501 z m -1.914,-16.457 c 0,-1.416 -0.389,-2.52 -1.166,-3.313 -0.777,-0.792 -1.881,-1.188 -3.312,-1.188 -0.738,0 -1.381,0.124 -1.928,0.369 -0.545,0.247 -1,0.584 -1.361,1.016 -0.363,0.431 -0.631,0.927 -0.809,1.489 -0.176,0.562 -0.266,1.15 -0.266,1.766 0,1.369 0.389,2.447 1.166,3.231 0.777,0.785 1.867,1.177 3.268,1.177 0.752,0 1.406,-0.119 1.961,-0.357 0.555,-0.238 1.012,-0.569 1.373,-0.992 0.361,-0.423 0.633,-0.911 0.809,-1.466 0.175,-0.555 0.265,-1.132 0.265,-1.732 z"
   id="path3165"
   inkscape:connector-curvature="0"
   style="fill:#183319" />
</svg>